<mxfile host="app.diagrams.net" modified="2022-09-10T18:33:08.232Z" agent="5.0 (Windows NT 10.0; Win64; x64) AppleWebKit/537.36 (KHTML, like Gecko) Chrome/105.0.0.0 Safari/537.36 Edg/105.0.1343.27" etag="jRRFtIzvgc7w2NZBntGI" version="20.3.0" type="github">
  <diagram id="N9ADiY3QkiiLvTjCvlH-" name="Página-1">
    <mxGraphModel dx="868" dy="482" grid="1" gridSize="10" guides="1" tooltips="1" connect="1" arrows="1" fold="1" page="1" pageScale="1" pageWidth="827" pageHeight="1169" math="0" shadow="0">
      <root>
        <mxCell id="0" />
        <mxCell id="1" parent="0" />
        <mxCell id="iHQXcSi1We1GzEtA0HQJ-3" value="" style="edgeStyle=orthogonalEdgeStyle;rounded=0;orthogonalLoop=1;jettySize=auto;html=1;" edge="1" parent="1" source="iHQXcSi1We1GzEtA0HQJ-1" target="iHQXcSi1We1GzEtA0HQJ-2">
          <mxGeometry relative="1" as="geometry" />
        </mxCell>
        <mxCell id="iHQXcSi1We1GzEtA0HQJ-16" style="edgeStyle=orthogonalEdgeStyle;rounded=0;orthogonalLoop=1;jettySize=auto;html=1;fontSize=18;entryX=0;entryY=0.5;entryDx=0;entryDy=0;" edge="1" parent="1" source="iHQXcSi1We1GzEtA0HQJ-1" target="iHQXcSi1We1GzEtA0HQJ-14">
          <mxGeometry relative="1" as="geometry">
            <mxPoint x="170" y="700" as="targetPoint" />
            <Array as="points">
              <mxPoint x="160" y="220" />
              <mxPoint x="160" y="660" />
            </Array>
          </mxGeometry>
        </mxCell>
        <mxCell id="iHQXcSi1We1GzEtA0HQJ-1" value="Cliente" style="rounded=0;whiteSpace=wrap;html=1;fontSize=18;" vertex="1" parent="1">
          <mxGeometry x="320" y="190" width="120" height="60" as="geometry" />
        </mxCell>
        <mxCell id="iHQXcSi1We1GzEtA0HQJ-2" value="o" style="ellipse;whiteSpace=wrap;html=1;rounded=0;fontSize=24;" vertex="1" parent="1">
          <mxGeometry x="360" y="280" width="40" height="40" as="geometry" />
        </mxCell>
        <mxCell id="iHQXcSi1We1GzEtA0HQJ-6" style="edgeStyle=orthogonalEdgeStyle;rounded=0;orthogonalLoop=1;jettySize=auto;html=1;entryX=0;entryY=1;entryDx=0;entryDy=0;fontSize=18;" edge="1" parent="1" source="iHQXcSi1We1GzEtA0HQJ-4" target="iHQXcSi1We1GzEtA0HQJ-2">
          <mxGeometry relative="1" as="geometry" />
        </mxCell>
        <mxCell id="iHQXcSi1We1GzEtA0HQJ-10" style="edgeStyle=orthogonalEdgeStyle;rounded=0;orthogonalLoop=1;jettySize=auto;html=1;exitX=1;exitY=0.75;exitDx=0;exitDy=0;entryX=0.383;entryY=0.033;entryDx=0;entryDy=0;entryPerimeter=0;fontSize=18;" edge="1" parent="1" source="iHQXcSi1We1GzEtA0HQJ-4" target="iHQXcSi1We1GzEtA0HQJ-9">
          <mxGeometry relative="1" as="geometry" />
        </mxCell>
        <mxCell id="iHQXcSi1We1GzEtA0HQJ-4" value="Revisão" style="shape=ext;double=1;rounded=0;whiteSpace=wrap;html=1;fontSize=18;" vertex="1" parent="1">
          <mxGeometry x="220" y="370" width="120" height="40" as="geometry" />
        </mxCell>
        <mxCell id="iHQXcSi1We1GzEtA0HQJ-8" style="edgeStyle=orthogonalEdgeStyle;rounded=0;orthogonalLoop=1;jettySize=auto;html=1;entryX=1;entryY=1;entryDx=0;entryDy=0;fontSize=18;" edge="1" parent="1" source="iHQXcSi1We1GzEtA0HQJ-5" target="iHQXcSi1We1GzEtA0HQJ-2">
          <mxGeometry relative="1" as="geometry" />
        </mxCell>
        <mxCell id="iHQXcSi1We1GzEtA0HQJ-11" style="edgeStyle=orthogonalEdgeStyle;rounded=0;orthogonalLoop=1;jettySize=auto;html=1;exitX=0;exitY=0.75;exitDx=0;exitDy=0;entryX=0.608;entryY=0.017;entryDx=0;entryDy=0;entryPerimeter=0;fontSize=18;" edge="1" parent="1" source="iHQXcSi1We1GzEtA0HQJ-5" target="iHQXcSi1We1GzEtA0HQJ-9">
          <mxGeometry relative="1" as="geometry" />
        </mxCell>
        <mxCell id="iHQXcSi1We1GzEtA0HQJ-5" value="Concerto" style="shape=ext;double=1;rounded=0;whiteSpace=wrap;html=1;fontSize=18;" vertex="1" parent="1">
          <mxGeometry x="414" y="370" width="120" height="40" as="geometry" />
        </mxCell>
        <mxCell id="iHQXcSi1We1GzEtA0HQJ-13" value="" style="edgeStyle=orthogonalEdgeStyle;rounded=0;orthogonalLoop=1;jettySize=auto;html=1;fontSize=18;" edge="1" parent="1" source="iHQXcSi1We1GzEtA0HQJ-9" target="iHQXcSi1We1GzEtA0HQJ-12">
          <mxGeometry relative="1" as="geometry" />
        </mxCell>
        <mxCell id="iHQXcSi1We1GzEtA0HQJ-9" value="Mecanicos" style="rounded=0;whiteSpace=wrap;html=1;fontSize=18;" vertex="1" parent="1">
          <mxGeometry x="320" y="470" width="120" height="60" as="geometry" />
        </mxCell>
        <mxCell id="iHQXcSi1We1GzEtA0HQJ-15" value="" style="edgeStyle=orthogonalEdgeStyle;rounded=0;orthogonalLoop=1;jettySize=auto;html=1;fontSize=18;" edge="1" parent="1" source="iHQXcSi1We1GzEtA0HQJ-12" target="iHQXcSi1We1GzEtA0HQJ-14">
          <mxGeometry relative="1" as="geometry" />
        </mxCell>
        <mxCell id="iHQXcSi1We1GzEtA0HQJ-12" value="Avaliar" style="rhombus;whiteSpace=wrap;html=1;fontSize=18;rounded=0;" vertex="1" parent="1">
          <mxGeometry x="330" y="570" width="100" height="40" as="geometry" />
        </mxCell>
        <mxCell id="iHQXcSi1We1GzEtA0HQJ-21" style="edgeStyle=orthogonalEdgeStyle;rounded=0;orthogonalLoop=1;jettySize=auto;html=1;exitX=1;exitY=0;exitDx=0;exitDy=0;entryX=0;entryY=0.5;entryDx=0;entryDy=0;fontSize=18;" edge="1" parent="1" source="iHQXcSi1We1GzEtA0HQJ-14" target="iHQXcSi1We1GzEtA0HQJ-19">
          <mxGeometry relative="1" as="geometry" />
        </mxCell>
        <mxCell id="iHQXcSi1We1GzEtA0HQJ-22" style="edgeStyle=orthogonalEdgeStyle;rounded=0;orthogonalLoop=1;jettySize=auto;html=1;exitX=1;exitY=1;exitDx=0;exitDy=0;entryX=0;entryY=0.5;entryDx=0;entryDy=0;fontSize=18;" edge="1" parent="1" source="iHQXcSi1We1GzEtA0HQJ-14" target="iHQXcSi1We1GzEtA0HQJ-20">
          <mxGeometry relative="1" as="geometry" />
        </mxCell>
        <mxCell id="iHQXcSi1We1GzEtA0HQJ-14" value="Ordem de serviço" style="whiteSpace=wrap;html=1;fontSize=18;rounded=0;" vertex="1" parent="1">
          <mxGeometry x="320" y="630" width="120" height="60" as="geometry" />
        </mxCell>
        <mxCell id="iHQXcSi1We1GzEtA0HQJ-19" value="Peças" style="shape=ext;double=1;rounded=0;whiteSpace=wrap;html=1;fontSize=18;" vertex="1" parent="1">
          <mxGeometry x="500" y="570" width="120" height="60" as="geometry" />
        </mxCell>
        <mxCell id="iHQXcSi1We1GzEtA0HQJ-20" value="Serviços" style="shape=ext;double=1;rounded=0;whiteSpace=wrap;html=1;fontSize=18;" vertex="1" parent="1">
          <mxGeometry x="500" y="690" width="120" height="60" as="geometry" />
        </mxCell>
      </root>
    </mxGraphModel>
  </diagram>
</mxfile>
